Patient4_TMGait_0pt6_02_right_20_GRF.mot
version=1
nRows=58
nColumns=19
inDegrees=no
endheader
time	F1x	F1y	F1z	M1x	M1y	M1z	F2x	F2y	F2z	M2x	M2y	M2z	EC1x	EC1y	EC1z	EC2x	EC2y	EC2z
23.94	33.3438	723.1096	60.4014	-271.2049	-39.9162	683.5417	-15.1413	3.5079	-3.3122	2.3637	9.4733	3.8537	-0.0592	0.0182	-0.0073	-0.0462	0.0165	0.9585
23.9526	33.8724	717.6829	56.779	-267.202	-37.009	675.9454	-10.3007	3.2417	-2.2844	1.9884	6.5166	3.6152	-0.0592	0.0182	-0.0073	-0.0462	0.0165	0.9585
23.9653	34.8808	712.1093	53.5036	-263.3146	-34.0199	667.6113	-6.233	3.0577	-1.4042	1.6839	4.0138	3.4707	-0.0592	0.0182	-0.0073	-0.0462	0.0165	0.9585
23.9779	36.2618	707.3983	50.8624	-259.9859	-31.2339	659.686	-3.1551	2.9528	-0.73223	1.4655	2.1131	3.4002	-0.0592	0.0182	-0.0073	-0.0462	0.0165	0.9585
23.9906	37.8256	704.4056	48.9308	-257.5084	-28.8161	653.1851	-1.0482	2.9179	-0.267	1.3306	0.80414	3.3873	-0.0592	0.0182	-0.0073	-0.0462	0.0165	0.9585
24.0032	39.3477	703.5801	47.7249	-255.9719	-26.9118	648.7481	0.22275	2.9306	0.016482	1.2612	0.0051496	3.4156	-0.0592	0.0182	-0.0073	-0.0462	0.0165	0.9585
24.0159	40.6528	704.8381	47.1651	-255.262	-25.5656	646.4511	0.86445	2.9536	0.16347	1.2292	-0.40817	3.4399	-0.0592	0.0182	-0.0073	-0.0462	0.0165	0.9585
24.0285	41.6545	707.6429	47.1992	-255.1045	-24.8133	645.8861	1.055	2.9468	0.21603	1.203	-0.54853	3.4219	-0.0592	0.0182	-0.0073	-0.0462	0.0165	0.9585
24.0411	42.387	711.2111	47.734	-255.1579	-24.6058	646.3604	0.97635	2.8346	0.20465	1.1437	-0.51305	3.271	-0.0592	0.0182	-0.0073	-0.0462	0.0165	0.9585
24.0538	42.9545	714.7796	48.7248	-255.1095	-24.9004	647.1545	0.74352	2.5549	0.15492	1.015	-0.37436	2.9274	-0.0592	0.0182	-0.0073	-0.0462	0.0165	0.9585
24.0664	43.4995	717.8438	50.1055	-254.7656	-25.6112	647.737	0.46726	2.0066	0.085864	0.7724	-0.19432	2.2587	-0.0592	0.0182	-0.0073	-0.0462	0.0165	0.9585
24.0791	44.162	720.3114	51.8481	-254.1	-26.6723	647.9276	0.20422	1.1062	0.01371	0.37893	-0.012507	1.163	-0.0592	0.0182	-0.0073	-0.0462	0.0165	0.9585
24.0917	45.0738	722.5662	53.8997	-253.2758	-27.9824	647.9491	0.017972	-0.22147	-0.050138	-0.1949	0.13199	-0.45793	-0.0592	0.0182	-0.0073	-0.0462	0.0165	0.9585
24.1044	46.3138	725.3835	56.244	-252.6069	-29.4769	648.3755	-0.047138	-1.9854	-0.093885	-0.9513	0.19763	-2.6079	-0.0592	0.0182	-0.0073	-0.0462	0.0165	0.9585
24.117	47.914	729.6925	58.8459	-252.47	-31.0891	649.9304	0.065706	-4.0804	-0.11001	-1.8428	0.1464	-5.1599	-0.0592	0.0182	-0.0073	-0.0462	0.0165	0.9585
24.1296	49.82	736.2463	61.6794	-253.1744	-32.7875	653.228	0.41845	-6.2241	-0.071921	-2.7456	-0.078394	-7.7794	-0.0592	0.0182	-0.0073	-0.0462	0.0165	0.9585
24.1423	51.9449	745.3065	64.6854	-254.8445	-34.5319	658.471	1.0655	-7.8649	0.052402	-3.4255	-0.53598	-9.7996	-0.0592	0.0182	-0.0073	-0.0462	0.0165	0.9585
24.1549	54.1481	756.425	67.7923	-257.3408	-36.298	665.2938	2.0571	-8.1366	0.31062	-3.5125	-1.2949	-10.1782	-0.0592	0.0182	-0.0073	-0.0462	0.0165	0.9585
24.1676	56.32	768.4488	70.8695	-260.2674	-38.0156	672.74	3.3842	-5.7756	0.74767	-2.47	-2.3996	-7.3772	-0.0592	0.0182	-0.0073	-0.0462	0.0165	0.9585
24.1802	58.3556	779.756	73.7414	-263.056	-39.5776	679.4853	4.99	0.85667	1.41	0.40121	-3.8679	0.60329	-0.0592	0.0182	-0.0073	-0.0462	0.0165	0.9585
24.1929	60.2206	788.5744	76.1828	-265.0896	-40.8156	684.0744	6.6644	13.6961	2.3114	5.9228	-5.6213	16.1475	-0.0592	0.0182	-0.0073	-0.0462	0.0165	0.9585
24.2055	61.934	793.2243	77.9637	-265.7943	-41.5385	685.1317	8.0435	34.6982	3.4165	14.9228	-7.4487	41.6748	-0.0592	0.0182	-0.0073	-0.0462	0.0165	0.9585
24.2181	63.5663	792.231	78.8309	-264.6851	-41.5322	681.4439	8.4914	65.3928	4.6037	28.0385	-8.923	79.1147	-0.0592	0.0182	-0.0073	-0.0462	0.0165	0.9585
24.2308	65.1494	784.3209	78.5299	-261.3656	-40.5948	671.9715	6.9446	106.2086	5.6388	45.432	-9.301	129.0579	-0.0592	0.0182	-0.0073	-0.0462	0.0165	0.9585
24.2434	66.6319	768.3875	76.8164	-255.4999	-38.5629	655.826	2.004	155.692	6.1205	66.4583	-7.5146	189.7995	-0.0592	0.0182	-0.0073	-0.0462	0.0165	0.9585
24.2561	67.8321	743.4735	73.5085	-246.8005	-35.3668	632.2568	-6.9067	210.3125	5.435	89.5755	-2.6196	257.0591	-0.0592	0.0182	-0.0073	-0.0462	0.0165	0.9585
24.2687	68.4286	708.9721	68.5079	-235.0835	-31.058	600.8405	-18.5068	264.8675	3.0613	112.5526	5.4128	324.3333	-0.0592	0.0182	-0.0073	-0.0462	0.0165	0.9585
24.2814	68.0467	664.8254	61.8965	-220.3315	-25.8547	561.6179	-30.6315	314.3128	-0.95079	133.277	15.5176	385.1201	-0.0592	0.0182	-0.0073	-0.0462	0.0165	0.9585
24.294	66.3443	611.777	53.9265	-202.7701	-20.0927	515.3151	-41.5438	356.5645	-5.9843	150.8931	26.185	436.5387	-0.0592	0.0182	-0.0073	-0.0462	0.0165	0.9585
24.3066	63.1294	551.3435	45.0359	-182.8633	-14.1884	463.264	-50.5253	392.8024	-11.3558	165.9221	36.2979	479.8731	-0.0592	0.0182	-0.0073	-0.0462	0.0165	0.9585
24.3193	58.395	485.6396	35.757	-161.2624	-8.5487	407.259	-57.2598	425.4904	-16.3188	179.4546	44.8702	518.0868	-0.0592	0.0182	-0.0073	-0.0462	0.0165	0.9585
24.3319	52.2927	417.1621	26.6527	-138.7432	-3.5387	349.3566	-61.6729	456.8815	-20.3619	192.4753	51.2925	553.9439	-0.0592	0.0182	-0.0073	-0.0462	0.0165	0.9585
24.3446	45.0554	348.6413	18.27	-116.1665	0.52137	291.7759	-63.843	488.2335	-23.2188	205.5397	55.3273	588.9861	-0.0592	0.0182	-0.0073	-0.0462	0.0165	0.9585
24.3572	37.0302	282.8619	11.0724	-94.429	3.4109	236.7534	-64.1331	520.0093	-25.0658	218.8261	57.3508	623.8507	-0.0592	0.0182	-0.0073	-0.0462	0.0165	0.9585
24.3699	28.7024	222.3622	5.3803	-74.3673	5.0548	186.3067	-63.0458	552.1954	-26.3322	232.2833	58.1099	658.6275	-0.0592	0.0182	-0.0073	-0.0462	0.0165	0.9585
24.3825	20.6514	169.1257	1.2981	-56.6507	5.57	141.9888	-61.2157	584.449	-27.6266	245.7096	58.5755	693.0658	-0.0592	0.0182	-0.0073	-0.0462	0.0165	0.9585
24.3951	13.4155	124.2538	-1.2227	-41.6654	5.162	104.63	-59.2175	616.2346	-29.4236	258.8369	59.5429	726.6397	-0.0592	0.0182	-0.0073	-0.0462	0.0165	0.9585
24.4078	7.3194	87.8687	-2.4449	-29.4814	4.1334	74.3012	-57.5191	646.9882	-32.0355	271.3998	61.5565	758.7598	-0.0592	0.0182	-0.0073	-0.0462	0.0165	0.9585
24.4204	2.4954	59.3465	-2.7124	-19.9141	2.7818	50.469	-56.3495	676.2118	-35.4369	283.1984	64.681	788.867	-0.0592	0.0182	-0.0073	-0.0462	0.0165	0.9585
24.4331	-1.0212	37.6946	-2.4027	-12.6475	1.4078	32.3318	-55.687	703.573	-39.3644	294.1214	68.6025	816.584	-0.0592	0.0182	-0.0073	-0.0462	0.0165	0.9585
24.4457	-3.2018	21.8042	-1.8225	-7.3196	0.25489	18.9788	-55.3682	728.6902	-43.4079	304.044	72.7881	841.4764	-0.0592	0.0182	-0.0073	-0.0462	0.0165	0.9585
24.4584	-4.0794	10.6593	-1.2203	-3.592	-0.4922	9.5799	-55.1945	750.8779	-47.23	312.713	76.7645	862.7922	-0.0592	0.0182	-0.0073	-0.0462	0.0165	0.9585
24.471	-3.8937	3.3749	-0.7105	-1.1653	-0.82453	3.4039	-54.9768	769.2168	-50.5827	319.7669	80.1654	879.5426	-0.0592	0.0182	-0.0073	-0.0462	0.0165	0.9585
24.4836	-3.1421	-0.82531	-0.34059	0.22818	-0.86484	-0.17184	-54.5432	782.7893	-53.3363	324.831	82.7663	890.7661	-0.0592	0.0182	-0.0073	-0.0462	0.0165	0.9585
24.4963	-2.1851	-2.7759	-0.091815	0.87203	-0.74749	-1.8295	-53.7906	790.9963	-55.3838	327.6611	84.4019	895.8866	-0.0592	0.0182	-0.0073	-0.0462	0.0165	0.9585
24.5089	-1.253	-3.2283	0.043209	1.019	-0.55259	-2.1942	-52.6475	793.8383	-56.6825	328.2593	85.0024	894.9956	-0.0592	0.0182	-0.0073	-0.0462	0.0165	0.9585
24.5216	-0.46373	-2.8181	0.10493	0.88056	-0.35	-1.8219	-51.0851	791.9478	-57.2528	326.8865	84.5956	888.8875	-0.0592	0.0182	-0.0073	-0.0462	0.0165	0.9585
24.5342	0.14242	-2.0008	0.11486	0.6075	-0.16659	-1.0996	-49.1383	786.3617	-57.1884	323.9752	83.3146	878.7894	-0.0592	0.0182	-0.0073	-0.0462	0.0165	0.9585
24.5469	0.56327	-1.0721	0.10635	0.29727	-0.026517	-0.27915	-46.8834	778.3091	-56.6034	320.0386	81.334	866.1017	-0.0592	0.0182	-0.0073	-0.0462	0.0165	0.9585
24.5595	0.82681	-0.20742	0.086799	0.007449	0.076573	0.48569	-44.4045	769.0729	-55.6026	315.6102	78.8231	852.2478	-0.0592	0.0182	-0.0073	-0.0462	0.0165	0.9585
24.5721	0.95939	0.51483	0.069797	-0.23538	0.14114	1.1302	-41.8019	759.8245	-54.2693	311.1772	75.9313	838.5008	-0.0592	0.0182	-0.0073	-0.0462	0.0165	0.9585
24.5848	1.0092	1.0777	0.056365	-0.42657	0.17767	1.6317	-39.1933	751.5195	-52.7142	307.13	72.8315	825.8752	-0.0592	0.0182	-0.0073	-0.0462	0.0165	0.9585
24.5974	0.98775	1.4808	0.051106	-0.56895	0.18619	1.9954	-36.6628	744.8487	-51.0692	303.7433	69.7001	815.0768	-0.0592	0.0182	-0.0073	-0.0462	0.0165	0.9585
24.6101	0.92892	1.7517	0.054118	-0.67213	0.17305	2.2376	-34.2553	740.2147	-49.4989	301.1686	66.7225	806.4952	-0.0592	0.0182	-0.0073	-0.0462	0.0165	0.9585
24.6227	0.84165	1.9222	0.068713	-0.74364	0.13633	2.3849	-31.9682	737.7205	-48.1505	299.4329	64.0502	800.1848	-0.0592	0.0182	-0.0073	-0.0462	0.0165	0.9585
24.6354	0.74328	1.9966	0.094356	-0.78242	0.079075	2.4314	-29.7469	737.1996	-47.1653	298.452	61.814	795.9183	-0.0592	0.0182	-0.0073	-0.0462	0.0165	0.9585
24.648	0.63277	1.9707	0.13079	-0.78289	3.8111e-06	2.3733	-27.5165	738.2642	-46.6233	298.0563	60.0646	793.2519	-0.0592	0.0182	-0.0073	-0.0462	0.0165	0.9585
24.6606	0.51904	1.8022	0.1736	-0.72786	-0.093802	2.1629	-25.2094	740.3869	-46.5632	298.0288	58.806	791.5999	-0.0592	0.0182	-0.0073	-0.0462	0.0165	0.9585
